<svg id="Laag_1" data-name="Laag 1" xmlns="http://www.w3.org/2000/svg" viewBox="0 0 388.19 382.36"><title>dag</title><circle cx="194.09" cy="191.62" r="162.23" style="fill:none;stroke:#635f4d;stroke-miterlimit:10;stroke-width:0.331135004758835px"/><path d="M372.13,301l-54.59-57.59,81.16-15-75.44-31.62,66.31-46.73-80.33-.33c-.61-1.11-1.23-2.2-1.87-3.28l40-69.87-72.17,34.5,8.9-79.84L230.3,91,205.37,15.66,180.19,91.8l-.21,0L123.77,31.68,134.6,113.4l-73.24-33,41.43,69.38-81.62.34,68.41,47L12.8,230.92l83,14.16L40.73,305.22l79.56-19.58L92.63,364.27l66.28-51,8.46,82.15,39-72.14,40.81,72.52,5.91-82.2,65,50.63L293,285.12h0Z" transform="translate(-11.66 -14.6)" style="fill:none;stroke:#635f4d;stroke-miterlimit:10;stroke-width:0.66227000951767px"/><circle cx="194.73" cy="191.49" r="117.23" style="fill:none;stroke:#635f4d;stroke-miterlimit:10;stroke-width:0.66227000951767px"/><line x1="49.7" y1="65.81" x2="106.13" y2="114.71" style="fill:#fff;stroke:#635f4d;stroke-miterlimit:10;stroke-width:0.66227000951767px"/><line x1="9.51" y1="135.52" x2="82.31" y2="158.16" style="fill:none;stroke:#635f4d;stroke-miterlimit:10;stroke-width:0.66227000951767px"/><line x1="1.81" y1="216.32" x2="78.59" y2="207.58" style="fill:none;stroke:#635f4d;stroke-miterlimit:10;stroke-width:0.66227000951767px"/><line x1="29.07" y1="290.61" x2="94.75" y2="252.74" style="fill:none;stroke:#635f4d;stroke-miterlimit:10;stroke-width:0.66227000951767px"/><line x1="80.97" y1="349.67" x2="127.38" y2="287.45" style="fill:none;stroke:#635f4d;stroke-miterlimit:10;stroke-width:0.66227000951767px"/><line x1="155.7" y1="380.86" x2="170.67" y2="306.25" style="fill:none;stroke:#635f4d;stroke-miterlimit:10;stroke-width:0.66227000951767px"/><line x1="235.54" y1="381.24" x2="218.79" y2="306.25" style="fill:none;stroke:#635f4d;stroke-miterlimit:10;stroke-width:0.66227000951767px"/><line x1="306.46" y1="349.67" x2="263.22" y2="286.63" style="fill:none;stroke:#635f4d;stroke-miterlimit:10;stroke-width:0.66227000951767px"/><line x1="360.47" y1="286.44" x2="296.34" y2="249.99" style="fill:none;stroke:#635f4d;stroke-miterlimit:10;stroke-width:0.66227000951767px"/><line x1="387.04" y1="213.87" x2="311.1" y2="205.7" style="fill:none;stroke:#635f4d;stroke-miterlimit:10;stroke-width:0.66227000951767px"/><line x1="377.91" y1="135.52" x2="306.46" y2="158.16" style="fill:none;stroke:#635f4d;stroke-miterlimit:10;stroke-width:0.66227000951767px"/><line x1="335.69" y1="62.05" x2="280.83" y2="111.94" style="fill:none;stroke:#635f4d;stroke-miterlimit:10;stroke-width:0.66227000951767px"/><line x1="272.42" y1="16.71" x2="242.01" y2="84.19" style="fill:none;stroke:#635f4d;stroke-miterlimit:10;stroke-width:0.66227000951767px"/><line x1="193.71" y1="1.05" x2="194.73" y2="74.25" style="fill:none;stroke:#635f4d;stroke-miterlimit:10;stroke-width:0.66227000951767px"/><line x1="112.11" y1="17.07" x2="144" y2="85.77" style="fill:none;stroke:#635f4d;stroke-miterlimit:10;stroke-width:0.66227000951767px"/></svg>