<svg id="Laag_1" data-name="Laag 1" xmlns="http://www.w3.org/2000/svg" viewBox="0 0 362.76 379.91"><title>nacht</title><path d="M229.08,44.05a162.26,162.26,0,0,1,47.06,316.06" transform="translate(-24.29 -16.26)" style="fill:none;stroke:#635f4d;stroke-miterlimit:10;stroke-width:0.33113500475883484px"/><path d="M138.07,278c-8.72-19.18-13.93-42.77-13.93-71.8,0-180.43,169.07-172.46,169.07-172.46A189.71,189.71,0,0,0,80.78,71.51C6.39,145.22,5.83,265.29,79.54,339.68c65.53,66.15,167.71,73.92,241.86,23,5.1-3.51-55.57,4.88-110.93-17.67" transform="translate(-24.29 -16.26)" style="fill:none;stroke:#635f4d;stroke-miterlimit:10;stroke-width:0.6622700095176697px"/><polygon points="148.87 309.23 189.36 338.79 174.17 290.98 215.02 261.88 164.78 261.68 148.87 213.59 132.97 261.68 82.72 261.88 123.57 290.98 108.38 338.79 148.87 309.23" style="fill:none;stroke:#635f4d;stroke-miterlimit:10;stroke-width:0.6622700095176697px"/><polyline points="148.87 213.59 148.87 282.34 108.38 338.79" style="fill:none;stroke:#635f4d;stroke-miterlimit:10;stroke-width:0.6622700095176697px"/><polyline points="215.02 261.88 148.87 282.34 189.36 338.79" style="fill:none;stroke:#635f4d;stroke-miterlimit:10;stroke-width:0.6622700095176697px"/><line x1="82.72" y1="261.88" x2="148.87" y2="282.34" style="fill:none;stroke:#635f4d;stroke-miterlimit:10;stroke-width:0.6622700095176697px"/><polygon points="234.34 113.81 263.03 134.75 252.27 100.88 281.21 80.26 245.61 80.12 234.34 46.05 223.07 80.12 187.48 80.26 216.42 100.88 205.66 134.75 234.34 113.81" style="fill:none;stroke:#635f4d;stroke-miterlimit:10;stroke-width:0.6622700095176697px"/><polyline points="234.34 46.05 234.34 94.75 205.66 134.75" style="fill:none;stroke:#635f4d;stroke-miterlimit:10;stroke-width:0.6622700095176697px"/><polyline points="281.21 80.26 234.34 94.75 263.03 134.75" style="fill:none;stroke:#635f4d;stroke-miterlimit:10;stroke-width:0.6622700095176697px"/><line x1="187.48" y1="80.26" x2="234.34" y2="94.75" style="fill:none;stroke:#635f4d;stroke-miterlimit:10;stroke-width:0.6622700095176697px"/><polygon points="302.76 136.21 323.15 151.09 315.5 127.02 336.07 112.37 310.77 112.26 302.76 88.05 294.75 112.26 269.45 112.37 290.02 127.02 282.38 151.09 302.76 136.21" style="fill:none;stroke:#635f4d;stroke-miterlimit:10;stroke-width:0.6622700095176697px"/><polyline points="302.76 88.05 302.76 122.67 282.38 151.09" style="fill:none;stroke:#635f4d;stroke-miterlimit:10;stroke-width:0.6622700095176697px"/><polyline points="336.07 112.37 302.76 122.67 323.15 151.09" style="fill:none;stroke:#635f4d;stroke-miterlimit:10;stroke-width:0.6622700095176697px"/><line x1="269.45" y1="112.37" x2="302.76" y2="122.67" style="fill:none;stroke:#635f4d;stroke-miterlimit:10;stroke-width:0.6622700095176697px"/></svg>