<svg id="Laag_1" data-name="Laag 1" xmlns="http://www.w3.org/2000/svg" viewBox="0 0 411.5 411.5"><title>Tekengebied 1</title><polygon points="204.69 285.03 322.48 371.01 278.29 231.94 397.14 147.28 250.96 146.69 204.69 6.79 158.42 146.69 12.24 147.28 131.09 231.94 86.9 371.01 204.69 285.03" style="fill:none;stroke:#635f4d;stroke-miterlimit:10;stroke-width:0.25px"/><polyline points="12.24 147.28 204.69 209.46 397.14 147.28" style="fill:none;stroke:#635f4d;stroke-miterlimit:10;stroke-width:0.25px"/><polyline points="204.69 6.79 204.69 209.46 322.48 371.01 204.69 209.46 86.9 371.01" style="fill:none;stroke:#635f4d;stroke-miterlimit:10;stroke-width:0.25px"/><polygon points="204.69 285.03 322.48 371.01 278.29 231.94 397.14 147.28 250.96 146.69 204.69 6.79 158.42 146.69 12.24 147.28 131.09 231.94 86.9 371.01 204.69 285.03" style="fill:none;stroke:#635f4d;stroke-miterlimit:10;stroke-width:0.25px"/><polyline points="12.24 147.28 204.69 209.46 397.14 147.28" style="fill:none;stroke:#635f4d;stroke-miterlimit:10;stroke-width:0.25px"/><polyline points="204.69 6.79 204.69 209.46 322.48 371.01 204.69 209.46 86.9 371.01" style="fill:none;stroke:#635f4d;stroke-miterlimit:10;stroke-width:0.25px"/></svg>